<?xml version="1.0" standalone="no"?>
<!DOCTYPE svg PUBLIC "-//W3C//DTD SVG 20010904//EN"
 "http://www.w3.org/TR/2001/REC-SVG-20010904/DTD/svg10.dtd">
<svg version="1.0" xmlns="http://www.w3.org/2000/svg"
 width="16.000000pt" height="16.000000pt" viewBox="0 0 16.000000 16.000000"
 preserveAspectRatio="xMidYMid meet">
<metadata>
Created by potrace 1.11, written by Peter Selinger 2001-2013
</metadata>
<g transform="translate(0.000000,16.000000) scale(0.002671,-0.002671)"
fill="#000000" stroke="none">
<path d="M2406 5964 c-18 -25 -19 -48 -14 -229 1 -5 -15 -44 -35 -85 -30 -64
-35 -83 -31 -127 2 -29 6 -75 8 -102 2 -31 -4 -70 -16 -107 -70 -207 -100
-347 -113 -520 -5 -67 -39 -337 -49 -392 -2 -9 -7 -39 -10 -67 -4 -27 -18 -90
-32 -140 -14 -49 -27 -107 -30 -130 -19 -194 -27 -245 -53 -360 -11 -44 -22
-116 -26 -159 -4 -43 -8 -86 -10 -95 -1 -9 -6 -54 -10 -101 -7 -91 -49 -223
-93 -294 -19 -31 -22 -45 -16 -75 10 -50 11 -46 -15 -149 -12 -51 -40 -130
-62 -175 -22 -46 -44 -107 -49 -137 -5 -30 -12 -68 -16 -85 -9 -41 -8 -44 5
-93 12 -43 7 -96 -11 -119 -5 -6 -12 -51 -14 -100 -6 -100 -12 -122 -63 -248
-32 -78 -36 -95 -27 -127 9 -36 -1 -73 -51 -187 -19 -42 -7 -108 38 -215 17
-40 29 -86 29 -112 0 -25 9 -70 21 -102 11 -31 25 -70 29 -85 5 -16 35 -58 66
-93 58 -67 63 -85 31 -126 -8 -10 -61 -39 -118 -66 -58 -27 -121 -57 -141 -66
l-36 -17 5 -92 c9 -155 9 -155 113 -281 l95 -115 215 -92 215 -93 740 -3 740
-3 335 130 c184 72 355 139 380 150 l45 18 56 139 c31 76 54 141 50 145 -3 4
-142 75 -309 158 -260 130 -301 153 -293 168 5 9 23 49 41 87 139 303 151 342
165 550 4 50 8 101 10 115 2 14 7 54 10 90 4 36 10 81 14 99 3 19 1 80 -6 135
-6 56 -15 132 -18 169 -4 37 -12 109 -19 161 -9 74 -9 101 2 137 11 40 11 49
-8 89 -21 48 -28 81 -29 147 l-1 41 -97 49 c-92 47 -97 51 -109 93 -12 39 -11
47 12 94 16 34 23 59 19 76 -4 14 -8 60 -10 103 -3 49 -12 94 -25 123 -11 26
-20 66 -20 90 0 23 -10 89 -21 146 -18 85 -21 130 -19 258 7 368 3 492 -18
569 -14 52 -17 84 -11 109 4 20 5 39 1 42 -4 3 -45 48 -92 100 -47 52 -101
113 -122 135 -20 22 -51 56 -68 75 -17 19 -70 94 -118 165 -85 129 -179 244
-279 340 -62 60 -83 115 -65 172 11 35 10 40 -16 68 -16 16 -71 77 -123 134
-52 57 -145 148 -208 202 -96 82 -120 98 -158 104 -25 4 -51 8 -57 11 -6 2
-19 -8 -30 -22z"/>
</g>
</svg>
